<?xml version="1.0" standalone="no"?>
<!DOCTYPE svg PUBLIC "-//W3C//DTD SVG 20010904//EN"
 "http://www.w3.org/TR/2001/REC-SVG-20010904/DTD/svg10.dtd">
<svg version="1.0" xmlns="http://www.w3.org/2000/svg"
 width="1000.000000pt" height="1000.000000pt" viewBox="0 0 1000.000000 1000.000000"
 preserveAspectRatio="xMidYMid meet">

<g transform="translate(0.000000,1000.000000) scale(0.100000,-0.100000)"
fill="#000000" stroke="none">
<path d="M3386 4646 c-108 -40 -152 -119 -116 -206 22 -53 116 -90 228 -90 69
0 124 -17 120 -38 -4 -23 -84 -62 -128 -62 -53 0 -106 18 -140 47 l-31 26 -40
-39 -39 -38 26 -27 c63 -66 210 -96 317 -65 115 34 174 125 135 211 -22 50
-90 74 -248 91 -76 7 -100 18 -100 43 0 24 65 51 121 51 42 0 103 -21 129 -45
14 -13 21 -10 56 26 l39 40 -25 20 c-74 60 -220 86 -304 55z"/>
<path d="M6074 4651 c-51 -13 -135 -64 -160 -96 -72 -95 -72 -205 0 -300 13
-17 53 -47 88 -65 58 -32 70 -35 153 -35 76 0 98 4 145 26 108 50 154 118 154
224 0 106 -47 174 -153 223 -59 27 -169 38 -227 23z m171 -120 c66 -30 90 -64
90 -126 0 -43 -5 -59 -25 -81 -108 -116 -330 -61 -330 82 0 107 150 178 265
125z"/>
<path d="M3962 4405 l-122 -245 63 0 62 0 85 171 c47 94 88 173 92 175 3 2 45
-75 91 -171 l86 -175 60 0 c34 0 61 2 61 5 0 3 -54 113 -120 245 l-120 240
-58 0 -57 0 -123 -245z"/>
<path d="M4850 4490 c0 -128 -3 -165 -15 -184 -33 -51 -115 -58 -169 -15 l-25
20 -38 -42 c-21 -23 -39 -45 -41 -49 -1 -4 15 -18 36 -33 129 -85 290 -50 351
76 19 39 21 61 21 215 l0 172 -60 0 -60 0 0 -160z"/>
<path d="M5080 4405 l0 -245 60 0 60 0 0 245 0 245 -60 0 -60 0 0 -245z"/>
<path d="M5310 4400 l0 -250 220 0 220 0 0 55 0 55 -160 0 -160 0 0 195 0 195
-60 0 -60 0 0 -250z"/>
</g>
</svg>
